%TF.GenerationSoftware,KiCad,Pcbnew,(5.1.10)-1*%
%TF.CreationDate,2021-09-04T16:11:19-06:00*%
%TF.ProjectId,UselessBox,5573656c-6573-4734-926f-782e6b696361,rev?*%
%TF.SameCoordinates,Original*%
%TF.FileFunction,Copper,L1,Top*%
%TF.FilePolarity,Positive*%
%FSLAX46Y46*%
G04 Gerber Fmt 4.6, Leading zero omitted, Abs format (unit mm)*
G04 Created by KiCad (PCBNEW (5.1.10)-1) date 2021-09-04 16:11:19*
%MOMM*%
%LPD*%
G01*
G04 APERTURE LIST*
%TA.AperFunction,ComponentPad*%
%ADD10O,1.700000X1.700000*%
%TD*%
%TA.AperFunction,ComponentPad*%
%ADD11R,1.700000X1.700000*%
%TD*%
%TA.AperFunction,ComponentPad*%
%ADD12O,1.600000X1.600000*%
%TD*%
%TA.AperFunction,ComponentPad*%
%ADD13C,1.600000*%
%TD*%
%TA.AperFunction,Conductor*%
%ADD14C,0.762000*%
%TD*%
%TA.AperFunction,Conductor*%
%ADD15C,0.254000*%
%TD*%
%TA.AperFunction,Conductor*%
%ADD16C,0.100000*%
%TD*%
G04 APERTURE END LIST*
D10*
%TO.P,J6,5*%
%TO.N,/D6*%
X43180000Y-88900000D03*
%TO.P,J6,4*%
%TO.N,/D1*%
X43180000Y-86360000D03*
%TO.P,J6,3*%
%TO.N,/D2*%
X43180000Y-83820000D03*
%TO.P,J6,2*%
%TO.N,+3V3*%
X43180000Y-81280000D03*
D11*
%TO.P,J6,1*%
%TO.N,GND*%
X43180000Y-78740000D03*
%TD*%
D12*
%TO.P,R1,2*%
%TO.N,+3V3*%
X55880000Y-71120000D03*
D13*
%TO.P,R1,1*%
%TO.N,/D5*%
X43180000Y-71120000D03*
%TD*%
D10*
%TO.P,J5,8*%
%TO.N,+5V*%
X38100000Y-71120000D03*
%TO.P,J5,7*%
%TO.N,GND*%
X38100000Y-73660000D03*
%TO.P,J5,6*%
%TO.N,/D4*%
X38100000Y-76200000D03*
%TO.P,J5,5*%
%TO.N,/D3*%
X38100000Y-78740000D03*
%TO.P,J5,4*%
%TO.N,/D2*%
X38100000Y-81280000D03*
%TO.P,J5,3*%
%TO.N,/D1*%
X38100000Y-83820000D03*
%TO.P,J5,2*%
%TO.N,/RX*%
X38100000Y-86360000D03*
D11*
%TO.P,J5,1*%
%TO.N,/TX*%
X38100000Y-88900000D03*
%TD*%
D10*
%TO.P,J4,3*%
%TO.N,/D8*%
X48260000Y-83820000D03*
%TO.P,J4,2*%
%TO.N,+5V*%
X48260000Y-81280000D03*
D11*
%TO.P,J4,1*%
%TO.N,GND*%
X48260000Y-78740000D03*
%TD*%
D10*
%TO.P,J3,8*%
%TO.N,+3V3*%
X60960000Y-71120000D03*
%TO.P,J3,7*%
%TO.N,/D8*%
X60960000Y-73660000D03*
%TO.P,J3,6*%
%TO.N,/D7*%
X60960000Y-76200000D03*
%TO.P,J3,5*%
%TO.N,/D6*%
X60960000Y-78740000D03*
%TO.P,J3,4*%
%TO.N,/D5*%
X60960000Y-81280000D03*
%TO.P,J3,3*%
%TO.N,/D0*%
X60960000Y-83820000D03*
%TO.P,J3,2*%
%TO.N,/A0*%
X60960000Y-86360000D03*
D11*
%TO.P,J3,1*%
%TO.N,/RST*%
X60960000Y-88900000D03*
%TD*%
D10*
%TO.P,J2,3*%
%TO.N,/D0*%
X55880000Y-83820000D03*
%TO.P,J2,2*%
%TO.N,+5V*%
X55880000Y-81280000D03*
D11*
%TO.P,J2,1*%
%TO.N,GND*%
X55880000Y-78740000D03*
%TD*%
D10*
%TO.P,J1,2*%
%TO.N,/D5*%
X55880000Y-88900000D03*
D11*
%TO.P,J1,1*%
%TO.N,GND*%
X53340000Y-88900000D03*
%TD*%
D14*
%TO.N,/D5*%
X59055000Y-81280000D02*
X60960000Y-81280000D01*
X58420000Y-81915000D02*
X59055000Y-81280000D01*
X58420000Y-86360000D02*
X58420000Y-81915000D01*
X55880000Y-88900000D02*
X58420000Y-86360000D01*
%TO.N,+3V3*%
X60960000Y-71120000D02*
X55880000Y-71120000D01*
X49530000Y-71120000D02*
X55880000Y-71120000D01*
X45720000Y-74930000D02*
X49530000Y-71120000D01*
X45720000Y-78740000D02*
X45720000Y-74930000D01*
X43180000Y-81280000D02*
X45720000Y-78740000D01*
%TO.N,/D8*%
X52070000Y-73660000D02*
X60960000Y-73660000D01*
X50800000Y-74930000D02*
X52070000Y-73660000D01*
X50800000Y-83185000D02*
X50800000Y-74930000D01*
X50165000Y-83820000D02*
X50800000Y-83185000D01*
X48260000Y-83820000D02*
X50165000Y-83820000D01*
%TO.N,/D6*%
X59690000Y-78740000D02*
X60960000Y-78740000D01*
X54610000Y-76200000D02*
X57150000Y-76200000D01*
X57150000Y-76200000D02*
X59690000Y-78740000D01*
X53340000Y-77470000D02*
X54610000Y-76200000D01*
X48895000Y-88900000D02*
X53340000Y-84455000D01*
X53340000Y-84455000D02*
X53340000Y-77470000D01*
X43180000Y-88900000D02*
X48895000Y-88900000D01*
%TO.N,/D2*%
X39370000Y-81280000D02*
X38100000Y-81280000D01*
X41910000Y-83820000D02*
X39370000Y-81280000D01*
X43180000Y-83820000D02*
X41910000Y-83820000D01*
%TO.N,/D1*%
X38735000Y-83820000D02*
X38100000Y-83820000D01*
X41275000Y-86360000D02*
X38735000Y-83820000D01*
X43180000Y-86360000D02*
X41275000Y-86360000D01*
%TD*%
D15*
%TO.N,GND*%
X63617869Y-69254722D02*
X63731246Y-69288953D01*
X63835819Y-69344555D01*
X63927596Y-69419407D01*
X64003091Y-69510664D01*
X64059419Y-69614844D01*
X64094440Y-69727976D01*
X64110000Y-69876022D01*
X64110001Y-90137711D01*
X64095278Y-90287869D01*
X64061047Y-90401246D01*
X64005446Y-90505817D01*
X63930594Y-90597595D01*
X63839335Y-90673091D01*
X63735160Y-90729419D01*
X63622024Y-90764440D01*
X63473979Y-90780000D01*
X35592279Y-90780000D01*
X35442131Y-90765278D01*
X35328754Y-90731047D01*
X35224183Y-90675446D01*
X35132405Y-90600594D01*
X35056909Y-90509335D01*
X35000581Y-90405160D01*
X34965560Y-90292024D01*
X34950000Y-90143979D01*
X34950000Y-88050000D01*
X36611928Y-88050000D01*
X36611928Y-89750000D01*
X36624188Y-89874482D01*
X36660498Y-89994180D01*
X36719463Y-90104494D01*
X36798815Y-90201185D01*
X36895506Y-90280537D01*
X37005820Y-90339502D01*
X37125518Y-90375812D01*
X37250000Y-90388072D01*
X38950000Y-90388072D01*
X39074482Y-90375812D01*
X39194180Y-90339502D01*
X39304494Y-90280537D01*
X39401185Y-90201185D01*
X39480537Y-90104494D01*
X39539502Y-89994180D01*
X39575812Y-89874482D01*
X39588072Y-89750000D01*
X39588072Y-88050000D01*
X39575812Y-87925518D01*
X39539502Y-87805820D01*
X39480537Y-87695506D01*
X39401185Y-87598815D01*
X39304494Y-87519463D01*
X39194180Y-87460498D01*
X39121620Y-87438487D01*
X39253475Y-87306632D01*
X39415990Y-87063411D01*
X39527932Y-86793158D01*
X39585000Y-86506260D01*
X39585000Y-86213740D01*
X39558456Y-86080297D01*
X40521292Y-87043133D01*
X40553104Y-87081896D01*
X40707810Y-87208860D01*
X40884313Y-87303202D01*
X41017732Y-87343674D01*
X41075828Y-87361298D01*
X41095177Y-87363204D01*
X41225098Y-87376000D01*
X41225105Y-87376000D01*
X41274999Y-87380914D01*
X41324893Y-87376000D01*
X42095893Y-87376000D01*
X42233368Y-87513475D01*
X42407760Y-87630000D01*
X42233368Y-87746525D01*
X42026525Y-87953368D01*
X41864010Y-88196589D01*
X41752068Y-88466842D01*
X41695000Y-88753740D01*
X41695000Y-89046260D01*
X41752068Y-89333158D01*
X41864010Y-89603411D01*
X42026525Y-89846632D01*
X42233368Y-90053475D01*
X42476589Y-90215990D01*
X42746842Y-90327932D01*
X43033740Y-90385000D01*
X43326260Y-90385000D01*
X43613158Y-90327932D01*
X43883411Y-90215990D01*
X44126632Y-90053475D01*
X44264107Y-89916000D01*
X48845098Y-89916000D01*
X48895000Y-89920915D01*
X48944902Y-89916000D01*
X49094171Y-89901298D01*
X49285687Y-89843202D01*
X49460057Y-89750000D01*
X51851928Y-89750000D01*
X51864188Y-89874482D01*
X51900498Y-89994180D01*
X51959463Y-90104494D01*
X52038815Y-90201185D01*
X52135506Y-90280537D01*
X52245820Y-90339502D01*
X52365518Y-90375812D01*
X52490000Y-90388072D01*
X53054250Y-90385000D01*
X53213000Y-90226250D01*
X53213000Y-89027000D01*
X52013750Y-89027000D01*
X51855000Y-89185750D01*
X51851928Y-89750000D01*
X49460057Y-89750000D01*
X49462190Y-89748860D01*
X49616896Y-89621896D01*
X49648712Y-89583128D01*
X51181840Y-88050000D01*
X51851928Y-88050000D01*
X51855000Y-88614250D01*
X52013750Y-88773000D01*
X53213000Y-88773000D01*
X53213000Y-87573750D01*
X53054250Y-87415000D01*
X52490000Y-87411928D01*
X52365518Y-87424188D01*
X52245820Y-87460498D01*
X52135506Y-87519463D01*
X52038815Y-87598815D01*
X51959463Y-87695506D01*
X51900498Y-87805820D01*
X51864188Y-87925518D01*
X51851928Y-88050000D01*
X51181840Y-88050000D01*
X54023133Y-85208708D01*
X54061896Y-85176896D01*
X54188860Y-85022190D01*
X54283202Y-84845687D01*
X54341298Y-84654171D01*
X54356000Y-84504902D01*
X54356000Y-84504895D01*
X54360914Y-84455001D01*
X54356000Y-84405107D01*
X54356000Y-79590000D01*
X54391928Y-79590000D01*
X54404188Y-79714482D01*
X54440498Y-79834180D01*
X54499463Y-79944494D01*
X54578815Y-80041185D01*
X54675506Y-80120537D01*
X54785820Y-80179502D01*
X54858380Y-80201513D01*
X54726525Y-80333368D01*
X54564010Y-80576589D01*
X54452068Y-80846842D01*
X54395000Y-81133740D01*
X54395000Y-81426260D01*
X54452068Y-81713158D01*
X54564010Y-81983411D01*
X54726525Y-82226632D01*
X54933368Y-82433475D01*
X55107760Y-82550000D01*
X54933368Y-82666525D01*
X54726525Y-82873368D01*
X54564010Y-83116589D01*
X54452068Y-83386842D01*
X54395000Y-83673740D01*
X54395000Y-83966260D01*
X54452068Y-84253158D01*
X54564010Y-84523411D01*
X54726525Y-84766632D01*
X54933368Y-84973475D01*
X55176589Y-85135990D01*
X55446842Y-85247932D01*
X55733740Y-85305000D01*
X56026260Y-85305000D01*
X56313158Y-85247932D01*
X56583411Y-85135990D01*
X56826632Y-84973475D01*
X57033475Y-84766632D01*
X57195990Y-84523411D01*
X57307932Y-84253158D01*
X57365000Y-83966260D01*
X57365000Y-83673740D01*
X57307932Y-83386842D01*
X57195990Y-83116589D01*
X57033475Y-82873368D01*
X56826632Y-82666525D01*
X56652240Y-82550000D01*
X56826632Y-82433475D01*
X57033475Y-82226632D01*
X57195990Y-81983411D01*
X57307932Y-81713158D01*
X57365000Y-81426260D01*
X57365000Y-81133740D01*
X57307932Y-80846842D01*
X57195990Y-80576589D01*
X57033475Y-80333368D01*
X56901620Y-80201513D01*
X56974180Y-80179502D01*
X57084494Y-80120537D01*
X57181185Y-80041185D01*
X57260537Y-79944494D01*
X57319502Y-79834180D01*
X57355812Y-79714482D01*
X57368072Y-79590000D01*
X57365000Y-79025750D01*
X57206250Y-78867000D01*
X56007000Y-78867000D01*
X56007000Y-78887000D01*
X55753000Y-78887000D01*
X55753000Y-78867000D01*
X54553750Y-78867000D01*
X54395000Y-79025750D01*
X54391928Y-79590000D01*
X54356000Y-79590000D01*
X54356000Y-77890840D01*
X54395761Y-77851079D01*
X54391928Y-77890000D01*
X54395000Y-78454250D01*
X54553750Y-78613000D01*
X55753000Y-78613000D01*
X55753000Y-77413750D01*
X55594250Y-77255000D01*
X55030000Y-77251928D01*
X54991080Y-77255761D01*
X55030841Y-77216000D01*
X56729160Y-77216000D01*
X56768921Y-77255761D01*
X56730000Y-77251928D01*
X56165750Y-77255000D01*
X56007000Y-77413750D01*
X56007000Y-78613000D01*
X57206250Y-78613000D01*
X57365000Y-78454250D01*
X57368072Y-77890000D01*
X57364239Y-77851079D01*
X58936292Y-79423133D01*
X58968104Y-79461896D01*
X59122810Y-79588860D01*
X59299313Y-79683202D01*
X59402429Y-79714482D01*
X59490828Y-79741298D01*
X59510177Y-79743204D01*
X59640098Y-79756000D01*
X59640105Y-79756000D01*
X59689999Y-79760914D01*
X59739893Y-79756000D01*
X59875893Y-79756000D01*
X60013368Y-79893475D01*
X60187760Y-80010000D01*
X60013368Y-80126525D01*
X59875893Y-80264000D01*
X59104902Y-80264000D01*
X59055000Y-80259085D01*
X59005098Y-80264000D01*
X58855829Y-80278702D01*
X58664313Y-80336798D01*
X58487810Y-80431140D01*
X58333104Y-80558104D01*
X58301287Y-80596873D01*
X57736868Y-81161292D01*
X57698105Y-81193104D01*
X57571141Y-81347810D01*
X57529209Y-81426260D01*
X57476799Y-81524313D01*
X57418702Y-81715830D01*
X57399085Y-81915000D01*
X57404001Y-81964912D01*
X57404000Y-85939159D01*
X55928160Y-87415000D01*
X55733740Y-87415000D01*
X55446842Y-87472068D01*
X55176589Y-87584010D01*
X54933368Y-87746525D01*
X54801513Y-87878380D01*
X54779502Y-87805820D01*
X54720537Y-87695506D01*
X54641185Y-87598815D01*
X54544494Y-87519463D01*
X54434180Y-87460498D01*
X54314482Y-87424188D01*
X54190000Y-87411928D01*
X53625750Y-87415000D01*
X53467000Y-87573750D01*
X53467000Y-88773000D01*
X53487000Y-88773000D01*
X53487000Y-89027000D01*
X53467000Y-89027000D01*
X53467000Y-90226250D01*
X53625750Y-90385000D01*
X54190000Y-90388072D01*
X54314482Y-90375812D01*
X54434180Y-90339502D01*
X54544494Y-90280537D01*
X54641185Y-90201185D01*
X54720537Y-90104494D01*
X54779502Y-89994180D01*
X54801513Y-89921620D01*
X54933368Y-90053475D01*
X55176589Y-90215990D01*
X55446842Y-90327932D01*
X55733740Y-90385000D01*
X56026260Y-90385000D01*
X56313158Y-90327932D01*
X56583411Y-90215990D01*
X56826632Y-90053475D01*
X57033475Y-89846632D01*
X57195990Y-89603411D01*
X57307932Y-89333158D01*
X57365000Y-89046260D01*
X57365000Y-88851840D01*
X59103135Y-87113706D01*
X59141896Y-87081896D01*
X59268860Y-86927190D01*
X59363202Y-86750687D01*
X59421298Y-86559171D01*
X59436000Y-86409902D01*
X59436000Y-86409895D01*
X59440914Y-86360001D01*
X59436000Y-86310107D01*
X59436000Y-82335840D01*
X59475840Y-82296000D01*
X59875893Y-82296000D01*
X60013368Y-82433475D01*
X60187760Y-82550000D01*
X60013368Y-82666525D01*
X59806525Y-82873368D01*
X59644010Y-83116589D01*
X59532068Y-83386842D01*
X59475000Y-83673740D01*
X59475000Y-83966260D01*
X59532068Y-84253158D01*
X59644010Y-84523411D01*
X59806525Y-84766632D01*
X60013368Y-84973475D01*
X60187760Y-85090000D01*
X60013368Y-85206525D01*
X59806525Y-85413368D01*
X59644010Y-85656589D01*
X59532068Y-85926842D01*
X59475000Y-86213740D01*
X59475000Y-86506260D01*
X59532068Y-86793158D01*
X59644010Y-87063411D01*
X59806525Y-87306632D01*
X59938380Y-87438487D01*
X59865820Y-87460498D01*
X59755506Y-87519463D01*
X59658815Y-87598815D01*
X59579463Y-87695506D01*
X59520498Y-87805820D01*
X59484188Y-87925518D01*
X59471928Y-88050000D01*
X59471928Y-89750000D01*
X59484188Y-89874482D01*
X59520498Y-89994180D01*
X59579463Y-90104494D01*
X59658815Y-90201185D01*
X59755506Y-90280537D01*
X59865820Y-90339502D01*
X59985518Y-90375812D01*
X60110000Y-90388072D01*
X61810000Y-90388072D01*
X61934482Y-90375812D01*
X62054180Y-90339502D01*
X62164494Y-90280537D01*
X62261185Y-90201185D01*
X62340537Y-90104494D01*
X62399502Y-89994180D01*
X62435812Y-89874482D01*
X62448072Y-89750000D01*
X62448072Y-88050000D01*
X62435812Y-87925518D01*
X62399502Y-87805820D01*
X62340537Y-87695506D01*
X62261185Y-87598815D01*
X62164494Y-87519463D01*
X62054180Y-87460498D01*
X61981620Y-87438487D01*
X62113475Y-87306632D01*
X62275990Y-87063411D01*
X62387932Y-86793158D01*
X62445000Y-86506260D01*
X62445000Y-86213740D01*
X62387932Y-85926842D01*
X62275990Y-85656589D01*
X62113475Y-85413368D01*
X61906632Y-85206525D01*
X61732240Y-85090000D01*
X61906632Y-84973475D01*
X62113475Y-84766632D01*
X62275990Y-84523411D01*
X62387932Y-84253158D01*
X62445000Y-83966260D01*
X62445000Y-83673740D01*
X62387932Y-83386842D01*
X62275990Y-83116589D01*
X62113475Y-82873368D01*
X61906632Y-82666525D01*
X61732240Y-82550000D01*
X61906632Y-82433475D01*
X62113475Y-82226632D01*
X62275990Y-81983411D01*
X62387932Y-81713158D01*
X62445000Y-81426260D01*
X62445000Y-81133740D01*
X62387932Y-80846842D01*
X62275990Y-80576589D01*
X62113475Y-80333368D01*
X61906632Y-80126525D01*
X61732240Y-80010000D01*
X61906632Y-79893475D01*
X62113475Y-79686632D01*
X62275990Y-79443411D01*
X62387932Y-79173158D01*
X62445000Y-78886260D01*
X62445000Y-78593740D01*
X62387932Y-78306842D01*
X62275990Y-78036589D01*
X62113475Y-77793368D01*
X61906632Y-77586525D01*
X61732240Y-77470000D01*
X61906632Y-77353475D01*
X62113475Y-77146632D01*
X62275990Y-76903411D01*
X62387932Y-76633158D01*
X62445000Y-76346260D01*
X62445000Y-76053740D01*
X62387932Y-75766842D01*
X62275990Y-75496589D01*
X62113475Y-75253368D01*
X61906632Y-75046525D01*
X61732240Y-74930000D01*
X61906632Y-74813475D01*
X62113475Y-74606632D01*
X62275990Y-74363411D01*
X62387932Y-74093158D01*
X62445000Y-73806260D01*
X62445000Y-73513740D01*
X62387932Y-73226842D01*
X62275990Y-72956589D01*
X62113475Y-72713368D01*
X61906632Y-72506525D01*
X61732240Y-72390000D01*
X61906632Y-72273475D01*
X62113475Y-72066632D01*
X62275990Y-71823411D01*
X62387932Y-71553158D01*
X62445000Y-71266260D01*
X62445000Y-70973740D01*
X62387932Y-70686842D01*
X62275990Y-70416589D01*
X62113475Y-70173368D01*
X61906632Y-69966525D01*
X61663411Y-69804010D01*
X61393158Y-69692068D01*
X61106260Y-69635000D01*
X60813740Y-69635000D01*
X60526842Y-69692068D01*
X60256589Y-69804010D01*
X60013368Y-69966525D01*
X59875893Y-70104000D01*
X56893396Y-70104000D01*
X56794759Y-70005363D01*
X56559727Y-69848320D01*
X56298574Y-69740147D01*
X56021335Y-69685000D01*
X55738665Y-69685000D01*
X55461426Y-69740147D01*
X55200273Y-69848320D01*
X54965241Y-70005363D01*
X54866604Y-70104000D01*
X49579902Y-70104000D01*
X49530000Y-70099085D01*
X49480098Y-70104000D01*
X49330829Y-70118702D01*
X49139313Y-70176798D01*
X48962810Y-70271140D01*
X48808104Y-70398104D01*
X48776292Y-70436867D01*
X45036868Y-74176292D01*
X44998105Y-74208104D01*
X44871141Y-74362810D01*
X44836874Y-74426920D01*
X44776799Y-74539313D01*
X44718702Y-74730830D01*
X44699085Y-74930000D01*
X44704001Y-74979912D01*
X44704000Y-78319159D01*
X44665526Y-78357633D01*
X44668072Y-77890000D01*
X44655812Y-77765518D01*
X44619502Y-77645820D01*
X44560537Y-77535506D01*
X44481185Y-77438815D01*
X44384494Y-77359463D01*
X44274180Y-77300498D01*
X44154482Y-77264188D01*
X44030000Y-77251928D01*
X43465750Y-77255000D01*
X43307000Y-77413750D01*
X43307000Y-78613000D01*
X43327000Y-78613000D01*
X43327000Y-78867000D01*
X43307000Y-78867000D01*
X43307000Y-78887000D01*
X43053000Y-78887000D01*
X43053000Y-78867000D01*
X41853750Y-78867000D01*
X41695000Y-79025750D01*
X41691928Y-79590000D01*
X41704188Y-79714482D01*
X41740498Y-79834180D01*
X41799463Y-79944494D01*
X41878815Y-80041185D01*
X41975506Y-80120537D01*
X42085820Y-80179502D01*
X42158380Y-80201513D01*
X42026525Y-80333368D01*
X41864010Y-80576589D01*
X41752068Y-80846842D01*
X41695000Y-81133740D01*
X41695000Y-81426260D01*
X41752068Y-81713158D01*
X41864010Y-81983411D01*
X42026525Y-82226632D01*
X42233368Y-82433475D01*
X42407760Y-82550000D01*
X42233368Y-82666525D01*
X42213367Y-82686526D01*
X40123712Y-80596872D01*
X40091896Y-80558104D01*
X39937190Y-80431140D01*
X39760687Y-80336798D01*
X39569171Y-80278702D01*
X39419902Y-80264000D01*
X39370000Y-80259085D01*
X39320098Y-80264000D01*
X39184107Y-80264000D01*
X39046632Y-80126525D01*
X38872240Y-80010000D01*
X39046632Y-79893475D01*
X39253475Y-79686632D01*
X39415990Y-79443411D01*
X39527932Y-79173158D01*
X39585000Y-78886260D01*
X39585000Y-78593740D01*
X39527932Y-78306842D01*
X39415990Y-78036589D01*
X39318043Y-77890000D01*
X41691928Y-77890000D01*
X41695000Y-78454250D01*
X41853750Y-78613000D01*
X43053000Y-78613000D01*
X43053000Y-77413750D01*
X42894250Y-77255000D01*
X42330000Y-77251928D01*
X42205518Y-77264188D01*
X42085820Y-77300498D01*
X41975506Y-77359463D01*
X41878815Y-77438815D01*
X41799463Y-77535506D01*
X41740498Y-77645820D01*
X41704188Y-77765518D01*
X41691928Y-77890000D01*
X39318043Y-77890000D01*
X39253475Y-77793368D01*
X39046632Y-77586525D01*
X38872240Y-77470000D01*
X39046632Y-77353475D01*
X39253475Y-77146632D01*
X39415990Y-76903411D01*
X39527932Y-76633158D01*
X39585000Y-76346260D01*
X39585000Y-76053740D01*
X39527932Y-75766842D01*
X39415990Y-75496589D01*
X39253475Y-75253368D01*
X39046632Y-75046525D01*
X38864466Y-74924805D01*
X38981355Y-74855178D01*
X39197588Y-74660269D01*
X39371641Y-74426920D01*
X39496825Y-74164099D01*
X39541476Y-74016890D01*
X39420155Y-73787000D01*
X38227000Y-73787000D01*
X38227000Y-73807000D01*
X37973000Y-73807000D01*
X37973000Y-73787000D01*
X36779845Y-73787000D01*
X36658524Y-74016890D01*
X36703175Y-74164099D01*
X36828359Y-74426920D01*
X37002412Y-74660269D01*
X37218645Y-74855178D01*
X37335534Y-74924805D01*
X37153368Y-75046525D01*
X36946525Y-75253368D01*
X36784010Y-75496589D01*
X36672068Y-75766842D01*
X36615000Y-76053740D01*
X36615000Y-76346260D01*
X36672068Y-76633158D01*
X36784010Y-76903411D01*
X36946525Y-77146632D01*
X37153368Y-77353475D01*
X37327760Y-77470000D01*
X37153368Y-77586525D01*
X36946525Y-77793368D01*
X36784010Y-78036589D01*
X36672068Y-78306842D01*
X36615000Y-78593740D01*
X36615000Y-78886260D01*
X36672068Y-79173158D01*
X36784010Y-79443411D01*
X36946525Y-79686632D01*
X37153368Y-79893475D01*
X37327760Y-80010000D01*
X37153368Y-80126525D01*
X36946525Y-80333368D01*
X36784010Y-80576589D01*
X36672068Y-80846842D01*
X36615000Y-81133740D01*
X36615000Y-81426260D01*
X36672068Y-81713158D01*
X36784010Y-81983411D01*
X36946525Y-82226632D01*
X37153368Y-82433475D01*
X37327760Y-82550000D01*
X37153368Y-82666525D01*
X36946525Y-82873368D01*
X36784010Y-83116589D01*
X36672068Y-83386842D01*
X36615000Y-83673740D01*
X36615000Y-83966260D01*
X36672068Y-84253158D01*
X36784010Y-84523411D01*
X36946525Y-84766632D01*
X37153368Y-84973475D01*
X37327760Y-85090000D01*
X37153368Y-85206525D01*
X36946525Y-85413368D01*
X36784010Y-85656589D01*
X36672068Y-85926842D01*
X36615000Y-86213740D01*
X36615000Y-86506260D01*
X36672068Y-86793158D01*
X36784010Y-87063411D01*
X36946525Y-87306632D01*
X37078380Y-87438487D01*
X37005820Y-87460498D01*
X36895506Y-87519463D01*
X36798815Y-87598815D01*
X36719463Y-87695506D01*
X36660498Y-87805820D01*
X36624188Y-87925518D01*
X36611928Y-88050000D01*
X34950000Y-88050000D01*
X34950000Y-70973740D01*
X36615000Y-70973740D01*
X36615000Y-71266260D01*
X36672068Y-71553158D01*
X36784010Y-71823411D01*
X36946525Y-72066632D01*
X37153368Y-72273475D01*
X37335534Y-72395195D01*
X37218645Y-72464822D01*
X37002412Y-72659731D01*
X36828359Y-72893080D01*
X36703175Y-73155901D01*
X36658524Y-73303110D01*
X36779845Y-73533000D01*
X37973000Y-73533000D01*
X37973000Y-73513000D01*
X38227000Y-73513000D01*
X38227000Y-73533000D01*
X39420155Y-73533000D01*
X39541476Y-73303110D01*
X39496825Y-73155901D01*
X39371641Y-72893080D01*
X39197588Y-72659731D01*
X38981355Y-72464822D01*
X38864466Y-72395195D01*
X39046632Y-72273475D01*
X39253475Y-72066632D01*
X39415990Y-71823411D01*
X39527932Y-71553158D01*
X39585000Y-71266260D01*
X39585000Y-70978665D01*
X41745000Y-70978665D01*
X41745000Y-71261335D01*
X41800147Y-71538574D01*
X41908320Y-71799727D01*
X42065363Y-72034759D01*
X42265241Y-72234637D01*
X42500273Y-72391680D01*
X42761426Y-72499853D01*
X43038665Y-72555000D01*
X43321335Y-72555000D01*
X43598574Y-72499853D01*
X43859727Y-72391680D01*
X44094759Y-72234637D01*
X44294637Y-72034759D01*
X44451680Y-71799727D01*
X44559853Y-71538574D01*
X44615000Y-71261335D01*
X44615000Y-70978665D01*
X44559853Y-70701426D01*
X44451680Y-70440273D01*
X44294637Y-70205241D01*
X44094759Y-70005363D01*
X43859727Y-69848320D01*
X43598574Y-69740147D01*
X43321335Y-69685000D01*
X43038665Y-69685000D01*
X42761426Y-69740147D01*
X42500273Y-69848320D01*
X42265241Y-70005363D01*
X42065363Y-70205241D01*
X41908320Y-70440273D01*
X41800147Y-70701426D01*
X41745000Y-70978665D01*
X39585000Y-70978665D01*
X39585000Y-70973740D01*
X39527932Y-70686842D01*
X39415990Y-70416589D01*
X39253475Y-70173368D01*
X39046632Y-69966525D01*
X38803411Y-69804010D01*
X38533158Y-69692068D01*
X38246260Y-69635000D01*
X37953740Y-69635000D01*
X37666842Y-69692068D01*
X37396589Y-69804010D01*
X37153368Y-69966525D01*
X36946525Y-70173368D01*
X36784010Y-70416589D01*
X36672068Y-70686842D01*
X36615000Y-70973740D01*
X34950000Y-70973740D01*
X34950000Y-69882279D01*
X34964722Y-69732131D01*
X34998953Y-69618754D01*
X35054555Y-69514181D01*
X35129407Y-69422404D01*
X35220664Y-69346909D01*
X35324844Y-69290581D01*
X35437976Y-69255560D01*
X35586022Y-69240000D01*
X63467721Y-69240000D01*
X63617869Y-69254722D01*
%TA.AperFunction,Conductor*%
D16*
G36*
X63617869Y-69254722D02*
G01*
X63731246Y-69288953D01*
X63835819Y-69344555D01*
X63927596Y-69419407D01*
X64003091Y-69510664D01*
X64059419Y-69614844D01*
X64094440Y-69727976D01*
X64110000Y-69876022D01*
X64110001Y-90137711D01*
X64095278Y-90287869D01*
X64061047Y-90401246D01*
X64005446Y-90505817D01*
X63930594Y-90597595D01*
X63839335Y-90673091D01*
X63735160Y-90729419D01*
X63622024Y-90764440D01*
X63473979Y-90780000D01*
X35592279Y-90780000D01*
X35442131Y-90765278D01*
X35328754Y-90731047D01*
X35224183Y-90675446D01*
X35132405Y-90600594D01*
X35056909Y-90509335D01*
X35000581Y-90405160D01*
X34965560Y-90292024D01*
X34950000Y-90143979D01*
X34950000Y-88050000D01*
X36611928Y-88050000D01*
X36611928Y-89750000D01*
X36624188Y-89874482D01*
X36660498Y-89994180D01*
X36719463Y-90104494D01*
X36798815Y-90201185D01*
X36895506Y-90280537D01*
X37005820Y-90339502D01*
X37125518Y-90375812D01*
X37250000Y-90388072D01*
X38950000Y-90388072D01*
X39074482Y-90375812D01*
X39194180Y-90339502D01*
X39304494Y-90280537D01*
X39401185Y-90201185D01*
X39480537Y-90104494D01*
X39539502Y-89994180D01*
X39575812Y-89874482D01*
X39588072Y-89750000D01*
X39588072Y-88050000D01*
X39575812Y-87925518D01*
X39539502Y-87805820D01*
X39480537Y-87695506D01*
X39401185Y-87598815D01*
X39304494Y-87519463D01*
X39194180Y-87460498D01*
X39121620Y-87438487D01*
X39253475Y-87306632D01*
X39415990Y-87063411D01*
X39527932Y-86793158D01*
X39585000Y-86506260D01*
X39585000Y-86213740D01*
X39558456Y-86080297D01*
X40521292Y-87043133D01*
X40553104Y-87081896D01*
X40707810Y-87208860D01*
X40884313Y-87303202D01*
X41017732Y-87343674D01*
X41075828Y-87361298D01*
X41095177Y-87363204D01*
X41225098Y-87376000D01*
X41225105Y-87376000D01*
X41274999Y-87380914D01*
X41324893Y-87376000D01*
X42095893Y-87376000D01*
X42233368Y-87513475D01*
X42407760Y-87630000D01*
X42233368Y-87746525D01*
X42026525Y-87953368D01*
X41864010Y-88196589D01*
X41752068Y-88466842D01*
X41695000Y-88753740D01*
X41695000Y-89046260D01*
X41752068Y-89333158D01*
X41864010Y-89603411D01*
X42026525Y-89846632D01*
X42233368Y-90053475D01*
X42476589Y-90215990D01*
X42746842Y-90327932D01*
X43033740Y-90385000D01*
X43326260Y-90385000D01*
X43613158Y-90327932D01*
X43883411Y-90215990D01*
X44126632Y-90053475D01*
X44264107Y-89916000D01*
X48845098Y-89916000D01*
X48895000Y-89920915D01*
X48944902Y-89916000D01*
X49094171Y-89901298D01*
X49285687Y-89843202D01*
X49460057Y-89750000D01*
X51851928Y-89750000D01*
X51864188Y-89874482D01*
X51900498Y-89994180D01*
X51959463Y-90104494D01*
X52038815Y-90201185D01*
X52135506Y-90280537D01*
X52245820Y-90339502D01*
X52365518Y-90375812D01*
X52490000Y-90388072D01*
X53054250Y-90385000D01*
X53213000Y-90226250D01*
X53213000Y-89027000D01*
X52013750Y-89027000D01*
X51855000Y-89185750D01*
X51851928Y-89750000D01*
X49460057Y-89750000D01*
X49462190Y-89748860D01*
X49616896Y-89621896D01*
X49648712Y-89583128D01*
X51181840Y-88050000D01*
X51851928Y-88050000D01*
X51855000Y-88614250D01*
X52013750Y-88773000D01*
X53213000Y-88773000D01*
X53213000Y-87573750D01*
X53054250Y-87415000D01*
X52490000Y-87411928D01*
X52365518Y-87424188D01*
X52245820Y-87460498D01*
X52135506Y-87519463D01*
X52038815Y-87598815D01*
X51959463Y-87695506D01*
X51900498Y-87805820D01*
X51864188Y-87925518D01*
X51851928Y-88050000D01*
X51181840Y-88050000D01*
X54023133Y-85208708D01*
X54061896Y-85176896D01*
X54188860Y-85022190D01*
X54283202Y-84845687D01*
X54341298Y-84654171D01*
X54356000Y-84504902D01*
X54356000Y-84504895D01*
X54360914Y-84455001D01*
X54356000Y-84405107D01*
X54356000Y-79590000D01*
X54391928Y-79590000D01*
X54404188Y-79714482D01*
X54440498Y-79834180D01*
X54499463Y-79944494D01*
X54578815Y-80041185D01*
X54675506Y-80120537D01*
X54785820Y-80179502D01*
X54858380Y-80201513D01*
X54726525Y-80333368D01*
X54564010Y-80576589D01*
X54452068Y-80846842D01*
X54395000Y-81133740D01*
X54395000Y-81426260D01*
X54452068Y-81713158D01*
X54564010Y-81983411D01*
X54726525Y-82226632D01*
X54933368Y-82433475D01*
X55107760Y-82550000D01*
X54933368Y-82666525D01*
X54726525Y-82873368D01*
X54564010Y-83116589D01*
X54452068Y-83386842D01*
X54395000Y-83673740D01*
X54395000Y-83966260D01*
X54452068Y-84253158D01*
X54564010Y-84523411D01*
X54726525Y-84766632D01*
X54933368Y-84973475D01*
X55176589Y-85135990D01*
X55446842Y-85247932D01*
X55733740Y-85305000D01*
X56026260Y-85305000D01*
X56313158Y-85247932D01*
X56583411Y-85135990D01*
X56826632Y-84973475D01*
X57033475Y-84766632D01*
X57195990Y-84523411D01*
X57307932Y-84253158D01*
X57365000Y-83966260D01*
X57365000Y-83673740D01*
X57307932Y-83386842D01*
X57195990Y-83116589D01*
X57033475Y-82873368D01*
X56826632Y-82666525D01*
X56652240Y-82550000D01*
X56826632Y-82433475D01*
X57033475Y-82226632D01*
X57195990Y-81983411D01*
X57307932Y-81713158D01*
X57365000Y-81426260D01*
X57365000Y-81133740D01*
X57307932Y-80846842D01*
X57195990Y-80576589D01*
X57033475Y-80333368D01*
X56901620Y-80201513D01*
X56974180Y-80179502D01*
X57084494Y-80120537D01*
X57181185Y-80041185D01*
X57260537Y-79944494D01*
X57319502Y-79834180D01*
X57355812Y-79714482D01*
X57368072Y-79590000D01*
X57365000Y-79025750D01*
X57206250Y-78867000D01*
X56007000Y-78867000D01*
X56007000Y-78887000D01*
X55753000Y-78887000D01*
X55753000Y-78867000D01*
X54553750Y-78867000D01*
X54395000Y-79025750D01*
X54391928Y-79590000D01*
X54356000Y-79590000D01*
X54356000Y-77890840D01*
X54395761Y-77851079D01*
X54391928Y-77890000D01*
X54395000Y-78454250D01*
X54553750Y-78613000D01*
X55753000Y-78613000D01*
X55753000Y-77413750D01*
X55594250Y-77255000D01*
X55030000Y-77251928D01*
X54991080Y-77255761D01*
X55030841Y-77216000D01*
X56729160Y-77216000D01*
X56768921Y-77255761D01*
X56730000Y-77251928D01*
X56165750Y-77255000D01*
X56007000Y-77413750D01*
X56007000Y-78613000D01*
X57206250Y-78613000D01*
X57365000Y-78454250D01*
X57368072Y-77890000D01*
X57364239Y-77851079D01*
X58936292Y-79423133D01*
X58968104Y-79461896D01*
X59122810Y-79588860D01*
X59299313Y-79683202D01*
X59402429Y-79714482D01*
X59490828Y-79741298D01*
X59510177Y-79743204D01*
X59640098Y-79756000D01*
X59640105Y-79756000D01*
X59689999Y-79760914D01*
X59739893Y-79756000D01*
X59875893Y-79756000D01*
X60013368Y-79893475D01*
X60187760Y-80010000D01*
X60013368Y-80126525D01*
X59875893Y-80264000D01*
X59104902Y-80264000D01*
X59055000Y-80259085D01*
X59005098Y-80264000D01*
X58855829Y-80278702D01*
X58664313Y-80336798D01*
X58487810Y-80431140D01*
X58333104Y-80558104D01*
X58301287Y-80596873D01*
X57736868Y-81161292D01*
X57698105Y-81193104D01*
X57571141Y-81347810D01*
X57529209Y-81426260D01*
X57476799Y-81524313D01*
X57418702Y-81715830D01*
X57399085Y-81915000D01*
X57404001Y-81964912D01*
X57404000Y-85939159D01*
X55928160Y-87415000D01*
X55733740Y-87415000D01*
X55446842Y-87472068D01*
X55176589Y-87584010D01*
X54933368Y-87746525D01*
X54801513Y-87878380D01*
X54779502Y-87805820D01*
X54720537Y-87695506D01*
X54641185Y-87598815D01*
X54544494Y-87519463D01*
X54434180Y-87460498D01*
X54314482Y-87424188D01*
X54190000Y-87411928D01*
X53625750Y-87415000D01*
X53467000Y-87573750D01*
X53467000Y-88773000D01*
X53487000Y-88773000D01*
X53487000Y-89027000D01*
X53467000Y-89027000D01*
X53467000Y-90226250D01*
X53625750Y-90385000D01*
X54190000Y-90388072D01*
X54314482Y-90375812D01*
X54434180Y-90339502D01*
X54544494Y-90280537D01*
X54641185Y-90201185D01*
X54720537Y-90104494D01*
X54779502Y-89994180D01*
X54801513Y-89921620D01*
X54933368Y-90053475D01*
X55176589Y-90215990D01*
X55446842Y-90327932D01*
X55733740Y-90385000D01*
X56026260Y-90385000D01*
X56313158Y-90327932D01*
X56583411Y-90215990D01*
X56826632Y-90053475D01*
X57033475Y-89846632D01*
X57195990Y-89603411D01*
X57307932Y-89333158D01*
X57365000Y-89046260D01*
X57365000Y-88851840D01*
X59103135Y-87113706D01*
X59141896Y-87081896D01*
X59268860Y-86927190D01*
X59363202Y-86750687D01*
X59421298Y-86559171D01*
X59436000Y-86409902D01*
X59436000Y-86409895D01*
X59440914Y-86360001D01*
X59436000Y-86310107D01*
X59436000Y-82335840D01*
X59475840Y-82296000D01*
X59875893Y-82296000D01*
X60013368Y-82433475D01*
X60187760Y-82550000D01*
X60013368Y-82666525D01*
X59806525Y-82873368D01*
X59644010Y-83116589D01*
X59532068Y-83386842D01*
X59475000Y-83673740D01*
X59475000Y-83966260D01*
X59532068Y-84253158D01*
X59644010Y-84523411D01*
X59806525Y-84766632D01*
X60013368Y-84973475D01*
X60187760Y-85090000D01*
X60013368Y-85206525D01*
X59806525Y-85413368D01*
X59644010Y-85656589D01*
X59532068Y-85926842D01*
X59475000Y-86213740D01*
X59475000Y-86506260D01*
X59532068Y-86793158D01*
X59644010Y-87063411D01*
X59806525Y-87306632D01*
X59938380Y-87438487D01*
X59865820Y-87460498D01*
X59755506Y-87519463D01*
X59658815Y-87598815D01*
X59579463Y-87695506D01*
X59520498Y-87805820D01*
X59484188Y-87925518D01*
X59471928Y-88050000D01*
X59471928Y-89750000D01*
X59484188Y-89874482D01*
X59520498Y-89994180D01*
X59579463Y-90104494D01*
X59658815Y-90201185D01*
X59755506Y-90280537D01*
X59865820Y-90339502D01*
X59985518Y-90375812D01*
X60110000Y-90388072D01*
X61810000Y-90388072D01*
X61934482Y-90375812D01*
X62054180Y-90339502D01*
X62164494Y-90280537D01*
X62261185Y-90201185D01*
X62340537Y-90104494D01*
X62399502Y-89994180D01*
X62435812Y-89874482D01*
X62448072Y-89750000D01*
X62448072Y-88050000D01*
X62435812Y-87925518D01*
X62399502Y-87805820D01*
X62340537Y-87695506D01*
X62261185Y-87598815D01*
X62164494Y-87519463D01*
X62054180Y-87460498D01*
X61981620Y-87438487D01*
X62113475Y-87306632D01*
X62275990Y-87063411D01*
X62387932Y-86793158D01*
X62445000Y-86506260D01*
X62445000Y-86213740D01*
X62387932Y-85926842D01*
X62275990Y-85656589D01*
X62113475Y-85413368D01*
X61906632Y-85206525D01*
X61732240Y-85090000D01*
X61906632Y-84973475D01*
X62113475Y-84766632D01*
X62275990Y-84523411D01*
X62387932Y-84253158D01*
X62445000Y-83966260D01*
X62445000Y-83673740D01*
X62387932Y-83386842D01*
X62275990Y-83116589D01*
X62113475Y-82873368D01*
X61906632Y-82666525D01*
X61732240Y-82550000D01*
X61906632Y-82433475D01*
X62113475Y-82226632D01*
X62275990Y-81983411D01*
X62387932Y-81713158D01*
X62445000Y-81426260D01*
X62445000Y-81133740D01*
X62387932Y-80846842D01*
X62275990Y-80576589D01*
X62113475Y-80333368D01*
X61906632Y-80126525D01*
X61732240Y-80010000D01*
X61906632Y-79893475D01*
X62113475Y-79686632D01*
X62275990Y-79443411D01*
X62387932Y-79173158D01*
X62445000Y-78886260D01*
X62445000Y-78593740D01*
X62387932Y-78306842D01*
X62275990Y-78036589D01*
X62113475Y-77793368D01*
X61906632Y-77586525D01*
X61732240Y-77470000D01*
X61906632Y-77353475D01*
X62113475Y-77146632D01*
X62275990Y-76903411D01*
X62387932Y-76633158D01*
X62445000Y-76346260D01*
X62445000Y-76053740D01*
X62387932Y-75766842D01*
X62275990Y-75496589D01*
X62113475Y-75253368D01*
X61906632Y-75046525D01*
X61732240Y-74930000D01*
X61906632Y-74813475D01*
X62113475Y-74606632D01*
X62275990Y-74363411D01*
X62387932Y-74093158D01*
X62445000Y-73806260D01*
X62445000Y-73513740D01*
X62387932Y-73226842D01*
X62275990Y-72956589D01*
X62113475Y-72713368D01*
X61906632Y-72506525D01*
X61732240Y-72390000D01*
X61906632Y-72273475D01*
X62113475Y-72066632D01*
X62275990Y-71823411D01*
X62387932Y-71553158D01*
X62445000Y-71266260D01*
X62445000Y-70973740D01*
X62387932Y-70686842D01*
X62275990Y-70416589D01*
X62113475Y-70173368D01*
X61906632Y-69966525D01*
X61663411Y-69804010D01*
X61393158Y-69692068D01*
X61106260Y-69635000D01*
X60813740Y-69635000D01*
X60526842Y-69692068D01*
X60256589Y-69804010D01*
X60013368Y-69966525D01*
X59875893Y-70104000D01*
X56893396Y-70104000D01*
X56794759Y-70005363D01*
X56559727Y-69848320D01*
X56298574Y-69740147D01*
X56021335Y-69685000D01*
X55738665Y-69685000D01*
X55461426Y-69740147D01*
X55200273Y-69848320D01*
X54965241Y-70005363D01*
X54866604Y-70104000D01*
X49579902Y-70104000D01*
X49530000Y-70099085D01*
X49480098Y-70104000D01*
X49330829Y-70118702D01*
X49139313Y-70176798D01*
X48962810Y-70271140D01*
X48808104Y-70398104D01*
X48776292Y-70436867D01*
X45036868Y-74176292D01*
X44998105Y-74208104D01*
X44871141Y-74362810D01*
X44836874Y-74426920D01*
X44776799Y-74539313D01*
X44718702Y-74730830D01*
X44699085Y-74930000D01*
X44704001Y-74979912D01*
X44704000Y-78319159D01*
X44665526Y-78357633D01*
X44668072Y-77890000D01*
X44655812Y-77765518D01*
X44619502Y-77645820D01*
X44560537Y-77535506D01*
X44481185Y-77438815D01*
X44384494Y-77359463D01*
X44274180Y-77300498D01*
X44154482Y-77264188D01*
X44030000Y-77251928D01*
X43465750Y-77255000D01*
X43307000Y-77413750D01*
X43307000Y-78613000D01*
X43327000Y-78613000D01*
X43327000Y-78867000D01*
X43307000Y-78867000D01*
X43307000Y-78887000D01*
X43053000Y-78887000D01*
X43053000Y-78867000D01*
X41853750Y-78867000D01*
X41695000Y-79025750D01*
X41691928Y-79590000D01*
X41704188Y-79714482D01*
X41740498Y-79834180D01*
X41799463Y-79944494D01*
X41878815Y-80041185D01*
X41975506Y-80120537D01*
X42085820Y-80179502D01*
X42158380Y-80201513D01*
X42026525Y-80333368D01*
X41864010Y-80576589D01*
X41752068Y-80846842D01*
X41695000Y-81133740D01*
X41695000Y-81426260D01*
X41752068Y-81713158D01*
X41864010Y-81983411D01*
X42026525Y-82226632D01*
X42233368Y-82433475D01*
X42407760Y-82550000D01*
X42233368Y-82666525D01*
X42213367Y-82686526D01*
X40123712Y-80596872D01*
X40091896Y-80558104D01*
X39937190Y-80431140D01*
X39760687Y-80336798D01*
X39569171Y-80278702D01*
X39419902Y-80264000D01*
X39370000Y-80259085D01*
X39320098Y-80264000D01*
X39184107Y-80264000D01*
X39046632Y-80126525D01*
X38872240Y-80010000D01*
X39046632Y-79893475D01*
X39253475Y-79686632D01*
X39415990Y-79443411D01*
X39527932Y-79173158D01*
X39585000Y-78886260D01*
X39585000Y-78593740D01*
X39527932Y-78306842D01*
X39415990Y-78036589D01*
X39318043Y-77890000D01*
X41691928Y-77890000D01*
X41695000Y-78454250D01*
X41853750Y-78613000D01*
X43053000Y-78613000D01*
X43053000Y-77413750D01*
X42894250Y-77255000D01*
X42330000Y-77251928D01*
X42205518Y-77264188D01*
X42085820Y-77300498D01*
X41975506Y-77359463D01*
X41878815Y-77438815D01*
X41799463Y-77535506D01*
X41740498Y-77645820D01*
X41704188Y-77765518D01*
X41691928Y-77890000D01*
X39318043Y-77890000D01*
X39253475Y-77793368D01*
X39046632Y-77586525D01*
X38872240Y-77470000D01*
X39046632Y-77353475D01*
X39253475Y-77146632D01*
X39415990Y-76903411D01*
X39527932Y-76633158D01*
X39585000Y-76346260D01*
X39585000Y-76053740D01*
X39527932Y-75766842D01*
X39415990Y-75496589D01*
X39253475Y-75253368D01*
X39046632Y-75046525D01*
X38864466Y-74924805D01*
X38981355Y-74855178D01*
X39197588Y-74660269D01*
X39371641Y-74426920D01*
X39496825Y-74164099D01*
X39541476Y-74016890D01*
X39420155Y-73787000D01*
X38227000Y-73787000D01*
X38227000Y-73807000D01*
X37973000Y-73807000D01*
X37973000Y-73787000D01*
X36779845Y-73787000D01*
X36658524Y-74016890D01*
X36703175Y-74164099D01*
X36828359Y-74426920D01*
X37002412Y-74660269D01*
X37218645Y-74855178D01*
X37335534Y-74924805D01*
X37153368Y-75046525D01*
X36946525Y-75253368D01*
X36784010Y-75496589D01*
X36672068Y-75766842D01*
X36615000Y-76053740D01*
X36615000Y-76346260D01*
X36672068Y-76633158D01*
X36784010Y-76903411D01*
X36946525Y-77146632D01*
X37153368Y-77353475D01*
X37327760Y-77470000D01*
X37153368Y-77586525D01*
X36946525Y-77793368D01*
X36784010Y-78036589D01*
X36672068Y-78306842D01*
X36615000Y-78593740D01*
X36615000Y-78886260D01*
X36672068Y-79173158D01*
X36784010Y-79443411D01*
X36946525Y-79686632D01*
X37153368Y-79893475D01*
X37327760Y-80010000D01*
X37153368Y-80126525D01*
X36946525Y-80333368D01*
X36784010Y-80576589D01*
X36672068Y-80846842D01*
X36615000Y-81133740D01*
X36615000Y-81426260D01*
X36672068Y-81713158D01*
X36784010Y-81983411D01*
X36946525Y-82226632D01*
X37153368Y-82433475D01*
X37327760Y-82550000D01*
X37153368Y-82666525D01*
X36946525Y-82873368D01*
X36784010Y-83116589D01*
X36672068Y-83386842D01*
X36615000Y-83673740D01*
X36615000Y-83966260D01*
X36672068Y-84253158D01*
X36784010Y-84523411D01*
X36946525Y-84766632D01*
X37153368Y-84973475D01*
X37327760Y-85090000D01*
X37153368Y-85206525D01*
X36946525Y-85413368D01*
X36784010Y-85656589D01*
X36672068Y-85926842D01*
X36615000Y-86213740D01*
X36615000Y-86506260D01*
X36672068Y-86793158D01*
X36784010Y-87063411D01*
X36946525Y-87306632D01*
X37078380Y-87438487D01*
X37005820Y-87460498D01*
X36895506Y-87519463D01*
X36798815Y-87598815D01*
X36719463Y-87695506D01*
X36660498Y-87805820D01*
X36624188Y-87925518D01*
X36611928Y-88050000D01*
X34950000Y-88050000D01*
X34950000Y-70973740D01*
X36615000Y-70973740D01*
X36615000Y-71266260D01*
X36672068Y-71553158D01*
X36784010Y-71823411D01*
X36946525Y-72066632D01*
X37153368Y-72273475D01*
X37335534Y-72395195D01*
X37218645Y-72464822D01*
X37002412Y-72659731D01*
X36828359Y-72893080D01*
X36703175Y-73155901D01*
X36658524Y-73303110D01*
X36779845Y-73533000D01*
X37973000Y-73533000D01*
X37973000Y-73513000D01*
X38227000Y-73513000D01*
X38227000Y-73533000D01*
X39420155Y-73533000D01*
X39541476Y-73303110D01*
X39496825Y-73155901D01*
X39371641Y-72893080D01*
X39197588Y-72659731D01*
X38981355Y-72464822D01*
X38864466Y-72395195D01*
X39046632Y-72273475D01*
X39253475Y-72066632D01*
X39415990Y-71823411D01*
X39527932Y-71553158D01*
X39585000Y-71266260D01*
X39585000Y-70978665D01*
X41745000Y-70978665D01*
X41745000Y-71261335D01*
X41800147Y-71538574D01*
X41908320Y-71799727D01*
X42065363Y-72034759D01*
X42265241Y-72234637D01*
X42500273Y-72391680D01*
X42761426Y-72499853D01*
X43038665Y-72555000D01*
X43321335Y-72555000D01*
X43598574Y-72499853D01*
X43859727Y-72391680D01*
X44094759Y-72234637D01*
X44294637Y-72034759D01*
X44451680Y-71799727D01*
X44559853Y-71538574D01*
X44615000Y-71261335D01*
X44615000Y-70978665D01*
X44559853Y-70701426D01*
X44451680Y-70440273D01*
X44294637Y-70205241D01*
X44094759Y-70005363D01*
X43859727Y-69848320D01*
X43598574Y-69740147D01*
X43321335Y-69685000D01*
X43038665Y-69685000D01*
X42761426Y-69740147D01*
X42500273Y-69848320D01*
X42265241Y-70005363D01*
X42065363Y-70205241D01*
X41908320Y-70440273D01*
X41800147Y-70701426D01*
X41745000Y-70978665D01*
X39585000Y-70978665D01*
X39585000Y-70973740D01*
X39527932Y-70686842D01*
X39415990Y-70416589D01*
X39253475Y-70173368D01*
X39046632Y-69966525D01*
X38803411Y-69804010D01*
X38533158Y-69692068D01*
X38246260Y-69635000D01*
X37953740Y-69635000D01*
X37666842Y-69692068D01*
X37396589Y-69804010D01*
X37153368Y-69966525D01*
X36946525Y-70173368D01*
X36784010Y-70416589D01*
X36672068Y-70686842D01*
X36615000Y-70973740D01*
X34950000Y-70973740D01*
X34950000Y-69882279D01*
X34964722Y-69732131D01*
X34998953Y-69618754D01*
X35054555Y-69514181D01*
X35129407Y-69422404D01*
X35220664Y-69346909D01*
X35324844Y-69290581D01*
X35437976Y-69255560D01*
X35586022Y-69240000D01*
X63467721Y-69240000D01*
X63617869Y-69254722D01*
G37*
%TD.AperFunction*%
D15*
X54965241Y-72234637D02*
X55200273Y-72391680D01*
X55461426Y-72499853D01*
X55738665Y-72555000D01*
X56021335Y-72555000D01*
X56298574Y-72499853D01*
X56559727Y-72391680D01*
X56794759Y-72234637D01*
X56893396Y-72136000D01*
X59875893Y-72136000D01*
X60013368Y-72273475D01*
X60187760Y-72390000D01*
X60013368Y-72506525D01*
X59875893Y-72644000D01*
X52119893Y-72644000D01*
X52069999Y-72639086D01*
X52020105Y-72644000D01*
X52020098Y-72644000D01*
X51870829Y-72658702D01*
X51679313Y-72716798D01*
X51502810Y-72811140D01*
X51348104Y-72938104D01*
X51316292Y-72976867D01*
X50116868Y-74176292D01*
X50078105Y-74208104D01*
X49951141Y-74362810D01*
X49916874Y-74426920D01*
X49856799Y-74539313D01*
X49798702Y-74730830D01*
X49779085Y-74930000D01*
X49784001Y-74979912D01*
X49784000Y-82764160D01*
X49744160Y-82804000D01*
X49344107Y-82804000D01*
X49206632Y-82666525D01*
X49032240Y-82550000D01*
X49206632Y-82433475D01*
X49413475Y-82226632D01*
X49575990Y-81983411D01*
X49687932Y-81713158D01*
X49745000Y-81426260D01*
X49745000Y-81133740D01*
X49687932Y-80846842D01*
X49575990Y-80576589D01*
X49413475Y-80333368D01*
X49281620Y-80201513D01*
X49354180Y-80179502D01*
X49464494Y-80120537D01*
X49561185Y-80041185D01*
X49640537Y-79944494D01*
X49699502Y-79834180D01*
X49735812Y-79714482D01*
X49748072Y-79590000D01*
X49745000Y-79025750D01*
X49586250Y-78867000D01*
X48387000Y-78867000D01*
X48387000Y-78887000D01*
X48133000Y-78887000D01*
X48133000Y-78867000D01*
X46933750Y-78867000D01*
X46775000Y-79025750D01*
X46771928Y-79590000D01*
X46784188Y-79714482D01*
X46820498Y-79834180D01*
X46879463Y-79944494D01*
X46958815Y-80041185D01*
X47055506Y-80120537D01*
X47165820Y-80179502D01*
X47238380Y-80201513D01*
X47106525Y-80333368D01*
X46944010Y-80576589D01*
X46832068Y-80846842D01*
X46775000Y-81133740D01*
X46775000Y-81426260D01*
X46832068Y-81713158D01*
X46944010Y-81983411D01*
X47106525Y-82226632D01*
X47313368Y-82433475D01*
X47487760Y-82550000D01*
X47313368Y-82666525D01*
X47106525Y-82873368D01*
X46944010Y-83116589D01*
X46832068Y-83386842D01*
X46775000Y-83673740D01*
X46775000Y-83966260D01*
X46832068Y-84253158D01*
X46944010Y-84523411D01*
X47106525Y-84766632D01*
X47313368Y-84973475D01*
X47556589Y-85135990D01*
X47826842Y-85247932D01*
X48113740Y-85305000D01*
X48406260Y-85305000D01*
X48693158Y-85247932D01*
X48963411Y-85135990D01*
X49206632Y-84973475D01*
X49344107Y-84836000D01*
X50115098Y-84836000D01*
X50165000Y-84840915D01*
X50214902Y-84836000D01*
X50364171Y-84821298D01*
X50555687Y-84763202D01*
X50732190Y-84668860D01*
X50886896Y-84541896D01*
X50918713Y-84503127D01*
X51483127Y-83938713D01*
X51521896Y-83906896D01*
X51648860Y-83752190D01*
X51743202Y-83575687D01*
X51801298Y-83384171D01*
X51816000Y-83234902D01*
X51816000Y-83234901D01*
X51820915Y-83185000D01*
X51816000Y-83135098D01*
X51816000Y-75350840D01*
X52490841Y-74676000D01*
X59875893Y-74676000D01*
X60013368Y-74813475D01*
X60187760Y-74930000D01*
X60013368Y-75046525D01*
X59806525Y-75253368D01*
X59644010Y-75496589D01*
X59532068Y-75766842D01*
X59475000Y-76053740D01*
X59475000Y-76346260D01*
X59532068Y-76633158D01*
X59644010Y-76903411D01*
X59806525Y-77146632D01*
X60013368Y-77353475D01*
X60187760Y-77470000D01*
X60013368Y-77586525D01*
X59993367Y-77606526D01*
X57903712Y-75516872D01*
X57871896Y-75478104D01*
X57717190Y-75351140D01*
X57540687Y-75256798D01*
X57349171Y-75198702D01*
X57199902Y-75184000D01*
X57150000Y-75179085D01*
X57100098Y-75184000D01*
X54659893Y-75184000D01*
X54609999Y-75179086D01*
X54560105Y-75184000D01*
X54560098Y-75184000D01*
X54410829Y-75198702D01*
X54219313Y-75256798D01*
X54042810Y-75351140D01*
X53888104Y-75478104D01*
X53856292Y-75516867D01*
X52656868Y-76716292D01*
X52618105Y-76748104D01*
X52491141Y-76902810D01*
X52413076Y-77048860D01*
X52396799Y-77079313D01*
X52338702Y-77270830D01*
X52319085Y-77470000D01*
X52324001Y-77519912D01*
X52324000Y-84034159D01*
X48474160Y-87884000D01*
X44264107Y-87884000D01*
X44126632Y-87746525D01*
X43952240Y-87630000D01*
X44126632Y-87513475D01*
X44333475Y-87306632D01*
X44495990Y-87063411D01*
X44607932Y-86793158D01*
X44665000Y-86506260D01*
X44665000Y-86213740D01*
X44607932Y-85926842D01*
X44495990Y-85656589D01*
X44333475Y-85413368D01*
X44126632Y-85206525D01*
X43952240Y-85090000D01*
X44126632Y-84973475D01*
X44333475Y-84766632D01*
X44495990Y-84523411D01*
X44607932Y-84253158D01*
X44665000Y-83966260D01*
X44665000Y-83673740D01*
X44607932Y-83386842D01*
X44495990Y-83116589D01*
X44333475Y-82873368D01*
X44126632Y-82666525D01*
X43952240Y-82550000D01*
X44126632Y-82433475D01*
X44333475Y-82226632D01*
X44495990Y-81983411D01*
X44607932Y-81713158D01*
X44665000Y-81426260D01*
X44665000Y-81231840D01*
X46403135Y-79493706D01*
X46441896Y-79461896D01*
X46568860Y-79307190D01*
X46663202Y-79130687D01*
X46721298Y-78939171D01*
X46736000Y-78789902D01*
X46736000Y-78789895D01*
X46740914Y-78740001D01*
X46736000Y-78690107D01*
X46736000Y-77890000D01*
X46771928Y-77890000D01*
X46775000Y-78454250D01*
X46933750Y-78613000D01*
X48133000Y-78613000D01*
X48133000Y-77413750D01*
X48387000Y-77413750D01*
X48387000Y-78613000D01*
X49586250Y-78613000D01*
X49745000Y-78454250D01*
X49748072Y-77890000D01*
X49735812Y-77765518D01*
X49699502Y-77645820D01*
X49640537Y-77535506D01*
X49561185Y-77438815D01*
X49464494Y-77359463D01*
X49354180Y-77300498D01*
X49234482Y-77264188D01*
X49110000Y-77251928D01*
X48545750Y-77255000D01*
X48387000Y-77413750D01*
X48133000Y-77413750D01*
X47974250Y-77255000D01*
X47410000Y-77251928D01*
X47285518Y-77264188D01*
X47165820Y-77300498D01*
X47055506Y-77359463D01*
X46958815Y-77438815D01*
X46879463Y-77535506D01*
X46820498Y-77645820D01*
X46784188Y-77765518D01*
X46771928Y-77890000D01*
X46736000Y-77890000D01*
X46736000Y-75350840D01*
X49950841Y-72136000D01*
X54866604Y-72136000D01*
X54965241Y-72234637D01*
%TA.AperFunction,Conductor*%
D16*
G36*
X54965241Y-72234637D02*
G01*
X55200273Y-72391680D01*
X55461426Y-72499853D01*
X55738665Y-72555000D01*
X56021335Y-72555000D01*
X56298574Y-72499853D01*
X56559727Y-72391680D01*
X56794759Y-72234637D01*
X56893396Y-72136000D01*
X59875893Y-72136000D01*
X60013368Y-72273475D01*
X60187760Y-72390000D01*
X60013368Y-72506525D01*
X59875893Y-72644000D01*
X52119893Y-72644000D01*
X52069999Y-72639086D01*
X52020105Y-72644000D01*
X52020098Y-72644000D01*
X51870829Y-72658702D01*
X51679313Y-72716798D01*
X51502810Y-72811140D01*
X51348104Y-72938104D01*
X51316292Y-72976867D01*
X50116868Y-74176292D01*
X50078105Y-74208104D01*
X49951141Y-74362810D01*
X49916874Y-74426920D01*
X49856799Y-74539313D01*
X49798702Y-74730830D01*
X49779085Y-74930000D01*
X49784001Y-74979912D01*
X49784000Y-82764160D01*
X49744160Y-82804000D01*
X49344107Y-82804000D01*
X49206632Y-82666525D01*
X49032240Y-82550000D01*
X49206632Y-82433475D01*
X49413475Y-82226632D01*
X49575990Y-81983411D01*
X49687932Y-81713158D01*
X49745000Y-81426260D01*
X49745000Y-81133740D01*
X49687932Y-80846842D01*
X49575990Y-80576589D01*
X49413475Y-80333368D01*
X49281620Y-80201513D01*
X49354180Y-80179502D01*
X49464494Y-80120537D01*
X49561185Y-80041185D01*
X49640537Y-79944494D01*
X49699502Y-79834180D01*
X49735812Y-79714482D01*
X49748072Y-79590000D01*
X49745000Y-79025750D01*
X49586250Y-78867000D01*
X48387000Y-78867000D01*
X48387000Y-78887000D01*
X48133000Y-78887000D01*
X48133000Y-78867000D01*
X46933750Y-78867000D01*
X46775000Y-79025750D01*
X46771928Y-79590000D01*
X46784188Y-79714482D01*
X46820498Y-79834180D01*
X46879463Y-79944494D01*
X46958815Y-80041185D01*
X47055506Y-80120537D01*
X47165820Y-80179502D01*
X47238380Y-80201513D01*
X47106525Y-80333368D01*
X46944010Y-80576589D01*
X46832068Y-80846842D01*
X46775000Y-81133740D01*
X46775000Y-81426260D01*
X46832068Y-81713158D01*
X46944010Y-81983411D01*
X47106525Y-82226632D01*
X47313368Y-82433475D01*
X47487760Y-82550000D01*
X47313368Y-82666525D01*
X47106525Y-82873368D01*
X46944010Y-83116589D01*
X46832068Y-83386842D01*
X46775000Y-83673740D01*
X46775000Y-83966260D01*
X46832068Y-84253158D01*
X46944010Y-84523411D01*
X47106525Y-84766632D01*
X47313368Y-84973475D01*
X47556589Y-85135990D01*
X47826842Y-85247932D01*
X48113740Y-85305000D01*
X48406260Y-85305000D01*
X48693158Y-85247932D01*
X48963411Y-85135990D01*
X49206632Y-84973475D01*
X49344107Y-84836000D01*
X50115098Y-84836000D01*
X50165000Y-84840915D01*
X50214902Y-84836000D01*
X50364171Y-84821298D01*
X50555687Y-84763202D01*
X50732190Y-84668860D01*
X50886896Y-84541896D01*
X50918713Y-84503127D01*
X51483127Y-83938713D01*
X51521896Y-83906896D01*
X51648860Y-83752190D01*
X51743202Y-83575687D01*
X51801298Y-83384171D01*
X51816000Y-83234902D01*
X51816000Y-83234901D01*
X51820915Y-83185000D01*
X51816000Y-83135098D01*
X51816000Y-75350840D01*
X52490841Y-74676000D01*
X59875893Y-74676000D01*
X60013368Y-74813475D01*
X60187760Y-74930000D01*
X60013368Y-75046525D01*
X59806525Y-75253368D01*
X59644010Y-75496589D01*
X59532068Y-75766842D01*
X59475000Y-76053740D01*
X59475000Y-76346260D01*
X59532068Y-76633158D01*
X59644010Y-76903411D01*
X59806525Y-77146632D01*
X60013368Y-77353475D01*
X60187760Y-77470000D01*
X60013368Y-77586525D01*
X59993367Y-77606526D01*
X57903712Y-75516872D01*
X57871896Y-75478104D01*
X57717190Y-75351140D01*
X57540687Y-75256798D01*
X57349171Y-75198702D01*
X57199902Y-75184000D01*
X57150000Y-75179085D01*
X57100098Y-75184000D01*
X54659893Y-75184000D01*
X54609999Y-75179086D01*
X54560105Y-75184000D01*
X54560098Y-75184000D01*
X54410829Y-75198702D01*
X54219313Y-75256798D01*
X54042810Y-75351140D01*
X53888104Y-75478104D01*
X53856292Y-75516867D01*
X52656868Y-76716292D01*
X52618105Y-76748104D01*
X52491141Y-76902810D01*
X52413076Y-77048860D01*
X52396799Y-77079313D01*
X52338702Y-77270830D01*
X52319085Y-77470000D01*
X52324001Y-77519912D01*
X52324000Y-84034159D01*
X48474160Y-87884000D01*
X44264107Y-87884000D01*
X44126632Y-87746525D01*
X43952240Y-87630000D01*
X44126632Y-87513475D01*
X44333475Y-87306632D01*
X44495990Y-87063411D01*
X44607932Y-86793158D01*
X44665000Y-86506260D01*
X44665000Y-86213740D01*
X44607932Y-85926842D01*
X44495990Y-85656589D01*
X44333475Y-85413368D01*
X44126632Y-85206525D01*
X43952240Y-85090000D01*
X44126632Y-84973475D01*
X44333475Y-84766632D01*
X44495990Y-84523411D01*
X44607932Y-84253158D01*
X44665000Y-83966260D01*
X44665000Y-83673740D01*
X44607932Y-83386842D01*
X44495990Y-83116589D01*
X44333475Y-82873368D01*
X44126632Y-82666525D01*
X43952240Y-82550000D01*
X44126632Y-82433475D01*
X44333475Y-82226632D01*
X44495990Y-81983411D01*
X44607932Y-81713158D01*
X44665000Y-81426260D01*
X44665000Y-81231840D01*
X46403135Y-79493706D01*
X46441896Y-79461896D01*
X46568860Y-79307190D01*
X46663202Y-79130687D01*
X46721298Y-78939171D01*
X46736000Y-78789902D01*
X46736000Y-78789895D01*
X46740914Y-78740001D01*
X46736000Y-78690107D01*
X46736000Y-77890000D01*
X46771928Y-77890000D01*
X46775000Y-78454250D01*
X46933750Y-78613000D01*
X48133000Y-78613000D01*
X48133000Y-77413750D01*
X48387000Y-77413750D01*
X48387000Y-78613000D01*
X49586250Y-78613000D01*
X49745000Y-78454250D01*
X49748072Y-77890000D01*
X49735812Y-77765518D01*
X49699502Y-77645820D01*
X49640537Y-77535506D01*
X49561185Y-77438815D01*
X49464494Y-77359463D01*
X49354180Y-77300498D01*
X49234482Y-77264188D01*
X49110000Y-77251928D01*
X48545750Y-77255000D01*
X48387000Y-77413750D01*
X48133000Y-77413750D01*
X47974250Y-77255000D01*
X47410000Y-77251928D01*
X47285518Y-77264188D01*
X47165820Y-77300498D01*
X47055506Y-77359463D01*
X46958815Y-77438815D01*
X46879463Y-77535506D01*
X46820498Y-77645820D01*
X46784188Y-77765518D01*
X46771928Y-77890000D01*
X46736000Y-77890000D01*
X46736000Y-75350840D01*
X49950841Y-72136000D01*
X54866604Y-72136000D01*
X54965241Y-72234637D01*
G37*
%TD.AperFunction*%
%TD*%
M02*
