M48
; DRILL file {KiCad (5.1.10)-1} date 09/04/21 16:11:10
; FORMAT={2:4/ absolute / inch / suppress leading zeros}
; #@! TF.CreationDate,2021-09-04T16:11:10-06:00
; #@! TF.GenerationSoftware,Kicad,Pcbnew,(5.1.10)-1
; #@! TF.FileFunction,Plated,1,2,PTH
FMAT,2
INCH,TZ
T1C0.0315
T2C0.0394
%
G90
G05
T1
X17000Y-28000
X22000Y-28000
T2
X15000Y-28000
X15000Y-29000
X15000Y-30000
X15000Y-31000
X15000Y-32000
X15000Y-33000
X15000Y-34000
X15000Y-35000
X17000Y-31000
X17000Y-32000
X17000Y-33000
X17000Y-34000
X17000Y-35000
X19000Y-31000
X19000Y-32000
X19000Y-33000
X21000Y-35000
X22000Y-31000
X22000Y-32000
X22000Y-33000
X22000Y-35000
X24000Y-28000
X24000Y-29000
X24000Y-30000
X24000Y-31000
X24000Y-32000
X24000Y-33000
X24000Y-34000
X24000Y-35000
T0
M30
